<svg width="14" height="14" viewBox="0 0 14 14" fill="none" xmlns="http://www.w3.org/2000/svg">

<g id="logo">
		<path d="M54.0106 41.5814C51.7739 41.5814 50.7826 40.7172 49.3847 39.4972C47.8343 38.1755 45.9027 36.498 42.2681 36.498C38.6081 36.498 36.7018 38.1755 35.1514 39.4972C33.7535 40.7172 32.7368 41.5814 30.5002 41.5814C28.2889 41.5814 27.2722 40.7172 25.8743 39.4972C24.3239 38.1755 22.3923 36.498 18.7577 36.498C15.0977 36.498 13.166 38.1755 11.6156 39.4972C10.2177 40.7172 9.22641 41.5814 6.98975 41.5814C5.94766 41.5814 5.0835 42.4455 5.0835 43.4876C5.0835 44.5551 5.94766 45.3939 6.98975 45.3939C10.6497 45.3939 12.556 43.7418 14.1064 42.3947C15.5043 41.1747 16.521 40.3105 18.7577 40.3105C20.9943 40.3105 21.9856 41.1747 23.3835 42.3947C24.9339 43.7418 26.8656 45.3939 30.5002 45.3939C34.1602 45.3939 36.0918 43.7418 37.6422 42.3947C39.0402 41.1747 40.0314 40.3105 42.2681 40.3105C44.4793 40.3105 45.496 41.1747 46.8939 42.3947C48.4444 43.7418 50.376 45.3939 54.0106 45.3939C55.0527 45.3939 55.9168 44.5551 55.9168 43.4876C55.9168 42.4455 55.0527 41.5814 54.0106 41.5814Z" fill="currentColor"/>
		<path d="M54.0106 31.1107C51.7739 31.1107 50.7826 30.2211 49.3847 29.0265C47.8343 27.6794 45.9027 26.0273 42.2681 26.0273C38.6081 26.0273 36.7018 27.6794 35.1514 29.0265C33.7535 30.2211 32.7368 31.1107 30.5002 31.1107C28.2889 31.1107 27.2722 30.2211 25.8743 29.0265C24.3239 27.6794 22.3923 26.0273 18.7577 26.0273C15.0977 26.0273 13.166 27.6794 11.6156 29.0265C10.2177 30.2211 9.22641 31.1107 6.98975 31.1107C5.94766 31.1107 5.0835 31.9494 5.0835 33.0169C5.0835 34.059 5.94766 34.9232 6.98975 34.9232C10.6497 34.9232 12.556 33.2457 14.1064 31.8986C15.5043 30.704 16.521 29.8398 18.7577 29.8398C20.9943 29.8398 21.9856 30.704 23.3835 31.8986C24.9339 33.2457 26.8656 34.9232 30.5002 34.9232C34.1602 34.9232 36.0918 33.2457 37.6422 31.8986C39.0402 30.704 40.0314 29.8398 42.2681 29.8398C44.4793 29.8398 45.496 30.704 46.8939 31.8986C48.4444 33.2457 50.376 34.9232 54.0106 34.9232C55.0527 34.9232 55.9168 34.059 55.9168 33.0169C55.9168 31.9494 55.0527 31.1107 54.0106 31.1107Z" fill="currentColor"/>
		<path d="M6.98975 24.5023C10.6497 24.5023 12.556 22.8248 14.1064 21.5031C15.5043 20.2831 16.521 19.4189 18.7577 19.4189C20.9943 19.4189 21.9856 20.2831 23.3835 21.5031C24.9339 22.8248 26.8656 24.5023 30.5002 24.5023C34.1602 24.5023 36.0918 22.8248 37.6422 21.5031C39.0402 20.2831 40.0314 19.4189 42.2681 19.4189C44.4793 19.4189 45.496 20.2831 46.8939 21.5031C48.4444 22.8248 50.376 24.5023 54.0106 24.5023C55.0527 24.5023 55.9168 23.6381 55.9168 22.596C55.9168 21.5285 55.0527 20.6898 54.0106 20.6898C51.7739 20.6898 50.7826 19.8256 49.3847 18.6056C47.8343 17.2585 45.9027 15.6064 42.2681 15.6064C38.6081 15.6064 36.7018 17.2585 35.1514 18.6056C33.7535 19.8256 32.7368 20.6898 30.5002 20.6898C28.2889 20.6898 27.2722 19.8256 25.8743 18.6056C24.3239 17.2585 22.3923 15.6064 18.7577 15.6064C15.0977 15.6064 13.166 17.2585 11.6156 18.6056C10.2177 19.8256 9.22641 20.6898 6.98975 20.6898C5.94766 20.6898 5.0835 21.5285 5.0835 22.596C5.0835 23.6381 5.94766 24.5023 6.98975 24.5023Z" fill="currentColor"/>
</g>

<path id="apple-login" d="M25.5299 24.2333C25.0708 25.282 24.5274 26.2474 23.8978 27.1349C23.0396 28.3448 22.3369 29.1823 21.7954 29.6474C20.9559 30.4107 20.0565 30.8017 19.0933 30.8239C18.4019 30.8239 17.568 30.6294 16.5974 30.2347C15.6236 29.8419 14.7286 29.6474 13.9103 29.6474C13.0521 29.6474 12.1317 29.8419 11.1472 30.2347C10.1612 30.6294 9.36685 30.835 8.75955 30.8554C7.83594 30.8943 6.91533 30.4923 5.9964 29.6474C5.4099 29.1415 4.6763 28.2744 3.79747 27.046C2.85456 25.7341 2.07936 24.2129 1.47206 22.4787C0.821651 20.6054 0.495605 18.7915 0.495605 17.0353C0.495605 15.0237 0.935205 13.2887 1.81571 11.8347C2.50772 10.6669 3.42833 9.74565 4.58054 9.06936C5.73276 8.39307 6.97773 8.04843 8.31845 8.02639C9.05205 8.02639 10.0141 8.25077 11.2096 8.69175C12.4017 9.13421 13.1672 9.35859 13.5028 9.35859C13.7537 9.35859 14.604 9.09622 16.0455 8.57316C17.4087 8.08809 18.5593 7.88724 19.5018 7.96635C22.0558 8.17017 23.9746 9.16571 25.2507 10.9593C22.9665 12.3278 21.8366 14.2446 21.8591 16.7035C21.8797 18.6188 22.5824 20.2126 23.9634 21.4781C24.5892 22.0655 25.2882 22.5194 26.0658 22.8418C25.8972 23.3254 25.7192 23.7886 25.5299 24.2333ZM19.6723 1.44133C19.6723 2.94254 19.1177 4.3442 18.0121 5.64157C16.678 7.18389 15.0642 8.07512 13.3143 7.93448C13.292 7.75439 13.279 7.56484 13.279 7.36566C13.279 5.9245 13.9135 4.38219 15.0402 3.12113C15.6028 2.48264 16.3182 1.95174 17.1858 1.52823C18.0515 1.11104 18.8703 0.880329 19.6405 0.84082C19.663 1.04151 19.6723 1.24221 19.6723 1.44132V1.44133Z" fill="currentColor"/>

<path id="gmail-login" d="M16.5331 7.09033C16.0351 6.17721 15.3502 5.482 14.4786 5.00469C13.607 4.52738 12.5901 4.28872 11.428 4.28872C10.1413 4.28872 8.99993 4.57926 8.00381 5.16033C7.00768 5.74141 6.22946 6.57151 5.66914 7.65065C5.10881 8.72978 4.82865 9.97494 4.82865 11.3861C4.82865 12.8388 5.10881 14.1047 5.66914 15.1839C6.25021 16.263 7.04919 17.0931 8.06606 17.6742C9.08294 18.2552 10.2658 18.5458 11.6148 18.5458C13.275 18.5458 14.6343 18.11 15.6927 17.2384C16.751 16.346 17.4463 15.1112 17.7783 13.534H10.3073V10.2032H22.0741V14.001C21.7836 15.5159 21.161 16.9167 20.2064 18.2034C19.2517 19.49 18.0169 20.5277 16.502 21.3163C15.0078 22.0841 13.3269 22.468 11.4591 22.468C9.3631 22.468 7.46424 22.0011 5.76252 21.0672C4.08156 20.1126 2.75339 18.7948 1.77802 17.1138C0.823397 15.4329 0.346087 13.5236 0.346087 11.3861C0.346087 9.2486 0.823397 7.33936 1.77802 5.65839C2.75339 3.95668 4.08156 2.63889 5.76252 1.70502C7.46424 0.750399 9.35273 0.273088 11.428 0.273088C13.8768 0.273088 16.0039 0.874914 17.8094 2.07857C19.6149 3.26147 20.8601 4.93205 21.5449 7.09033H16.5331Z" fill="currentColor"/>


<path id="email-login" fill-rule="evenodd" clip-rule="evenodd" d="M0.578368 5.31053C0.241547 8.29949 0.256561 11.7467 0.725252 14.7235C0.984589 16.3707 2.39211 17.6334 4.12953 17.7777L5.94531 17.9284C9.73146 18.2428 13.539 18.2428 17.3252 17.9284L19.141 17.7777C20.8784 17.6334 22.2859 16.3707 22.5452 14.7235C23.0139 11.7467 23.029 8.29968 22.6921 5.31071C22.6486 4.96419 22.5996 4.61814 22.5452 4.27267C22.2859 2.62553 20.8784 1.36279 19.141 1.21854L17.3252 1.06779C13.539 0.753446 9.73146 0.753446 5.94531 1.06779L4.12953 1.21854C2.3921 1.36279 0.984589 2.62553 0.725252 4.27267C0.670868 4.61808 0.621907 4.96407 0.578368 5.31053ZM6.10149 2.78379C9.78372 2.47808 13.4868 2.47808 17.169 2.78379L18.9848 2.93455C19.8917 3.00985 20.6264 3.669 20.7618 4.52881C20.7759 4.6181 20.7895 4.70743 20.8028 4.7968L14.1168 8.34447C12.5735 9.16335 10.6969 9.16335 9.15364 8.34447L2.46764 4.79684C2.48093 4.70746 2.49461 4.61811 2.50867 4.52881C2.64405 3.669 3.37877 3.00985 4.28572 2.93455L6.10149 2.78379ZM21.0235 6.65015C21.2567 9.25425 21.1695 11.878 20.7618 14.4674C20.6264 15.3272 19.8917 15.9864 18.9848 16.0617L17.169 16.2124C13.4868 16.5181 9.78372 16.5181 6.10149 16.2124L4.28572 16.0617C3.37878 15.9864 2.64405 15.3272 2.50867 14.4674C2.10098 11.878 2.01374 9.25428 2.24695 6.65019L8.2778 9.85019C10.3658 10.9581 12.9046 10.9581 14.9926 9.85019L21.0235 6.65015Z" fill="#C2C3CB"/>

<g id="password-login">
		<path d="M7.79668 16.8346C7.79668 15.8183 8.62054 14.9944 9.63682 14.9944C10.6531 14.9944 11.477 15.8183 11.477 16.8346C11.477 17.8508 10.6531 18.6747 9.63682 18.6747C8.62054 18.6747 7.79668 17.8508 7.79668 16.8346Z" fill="#C2C3CB"/>
		<path fill-rule="evenodd" clip-rule="evenodd" d="M4.26563 10.2065L3.87866 6.7238C3.82905 6.27728 3.82905 5.82665 3.87866 5.38013L3.90659 5.12877C4.20284 2.46254 6.29888 0.352933 8.96315 0.0394899C9.4107 -0.0131633 9.86288 -0.0131633 10.3104 0.03949C12.9747 0.352933 15.0707 2.46254 15.367 5.12877L15.3949 5.38013C15.4445 5.82665 15.4445 6.27728 15.3949 6.7238L15.0079 10.2065L15.8502 10.2738C17.1785 10.3798 18.2631 11.3783 18.4784 12.6932C18.9275 15.4359 18.9275 18.2333 18.4784 20.9759C18.2631 22.2908 17.1785 23.2893 15.8502 23.3953L14.0149 23.5419C11.1008 23.7745 8.17288 23.7745 5.25885 23.5419L3.42346 23.3953C2.09521 23.2893 1.01062 22.2908 0.795308 20.9759C0.346225 18.2333 0.346225 15.4359 0.795308 12.6932C1.01062 11.3783 2.09521 10.3798 3.42346 10.2738L4.26563 10.2065ZM9.17815 1.86703C9.48286 1.83118 9.79072 1.83118 10.0954 1.86703C11.9094 2.08043 13.3364 3.51672 13.5381 5.33198L13.566 5.58334C13.6006 5.8948 13.6006 6.20913 13.566 6.52059L13.172 10.0665C10.8176 9.91487 8.45593 9.91488 6.10153 10.0665L5.70755 6.52059C5.67294 6.20913 5.67294 5.8948 5.70755 5.58334L5.73547 5.33198C5.93717 3.51672 7.36423 2.08043 9.17815 1.86703ZM13.8684 11.9616C11.0519 11.7367 8.22185 11.7367 5.40529 11.9616L3.56989 12.1081C3.08541 12.1468 2.6898 12.511 2.61127 12.9906C2.19443 15.5363 2.19443 18.1328 2.61127 20.6785C2.6898 21.1582 3.08541 21.5223 3.56989 21.561L5.40529 21.7075C8.22185 21.9324 11.0519 21.9324 13.8684 21.7075L15.7038 21.561C16.1883 21.5223 16.5839 21.1582 16.6624 20.6785C17.0793 18.1328 17.0793 15.5363 16.6624 12.9906C16.5839 12.511 16.1883 12.1468 15.7038 12.1081L13.8684 11.9616Z" fill="#C2C3CB"/>
</g>
<g id="hide-eye-login">
		<path fill-rule="evenodd" clip-rule="evenodd" d="M20.8475 2.08844C21.1732 1.76282 21.1732 1.23488 20.8475 0.909257C20.5219 0.583633 19.994 0.583633 19.6683 0.909257L1.88038 18.6972C1.55476 19.0228 1.55476 19.5508 1.88038 19.8764C2.206 20.202 2.73394 20.202 3.05957 19.8764L6.2246 16.7114C7.74359 17.4264 9.49309 17.8971 11.364 17.8971C14.3479 17.8971 17.0231 16.6997 18.9467 15.2233C19.9104 14.4838 20.7062 13.6587 21.2684 12.8485C21.8151 12.0608 22.2035 11.1963 22.2035 10.3928C22.2035 9.58937 21.8151 8.72489 21.2684 7.93714C20.7062 7.12701 19.9104 6.30191 18.9467 5.56232C18.6553 5.33866 18.3466 5.12139 18.0223 4.91373L20.8475 2.08844ZM16.811 6.12497L14.8423 8.09369C15.2788 8.75276 15.533 9.54311 15.533 10.3928C15.533 12.6953 13.6665 14.5619 11.364 14.5619C10.5142 14.5619 9.72389 14.3077 9.06481 13.8712L7.48978 15.4462C8.67438 15.9288 9.98774 16.2295 11.364 16.2295C13.906 16.2295 16.2337 15.2035 17.9314 13.9004C18.7785 13.2503 19.448 12.5468 19.8984 11.8977C20.3643 11.2263 20.5359 10.7011 20.5359 10.3928C20.5359 10.0845 20.3643 9.55934 19.8984 8.88792C19.448 8.23888 18.7785 7.53533 17.9314 6.88523C17.5832 6.61801 17.2086 6.36244 16.811 6.12497ZM10.2855 12.6505C10.612 12.8068 10.9778 12.8943 11.364 12.8943C12.7455 12.8943 13.8654 11.7743 13.8654 10.3928C13.8654 10.0067 13.7779 9.64092 13.6216 9.31437L10.2855 12.6505Z" fill="#005A64" fill-opacity="0.35"/>
		<path d="M11.364 2.88853C12.5117 2.88853 13.6137 3.06568 14.6449 3.36771C14.8433 3.42582 14.9023 3.67412 14.7562 3.82029L13.8395 4.73699C13.7707 4.80575 13.6711 4.8333 13.5763 4.81149C12.8655 4.64795 12.1243 4.55616 11.364 4.55616C8.82189 4.55616 6.49426 5.58221 4.7965 6.88523C3.94946 7.53533 3.27996 8.23888 2.82954 8.88792C2.36359 9.55934 2.19204 10.0845 2.19204 10.3928C2.19204 10.7011 2.36359 11.2263 2.82954 11.8977C3.22291 12.4646 3.78337 13.073 4.48325 13.651C4.61205 13.7574 4.62433 13.9521 4.5062 14.0703L3.71807 14.8584C3.61767 14.9588 3.45747 14.9676 3.34867 14.8764C2.57825 14.2303 1.93525 13.534 1.45951 12.8485C0.912826 12.0608 0.524414 11.1963 0.524414 10.3928C0.524414 9.58937 0.912826 8.72489 1.45951 7.93714C2.02172 7.12701 2.81753 6.30191 3.78117 5.56232C5.70477 4.08598 8.38001 2.88853 11.364 2.88853Z" fill="#005A64" fill-opacity="0.35"/>
		<path d="M11.364 6.22378C11.4957 6.22378 11.6259 6.22989 11.7545 6.24183C11.9734 6.26217 12.0526 6.52385 11.8972 6.67927L10.5495 8.02699C9.82316 8.27699 9.24811 8.85203 8.99812 9.57835L7.65039 10.9261C7.49497 11.0815 7.23329 11.0023 7.21296 10.7834C7.20101 10.6548 7.1949 10.5245 7.1949 10.3928C7.1949 8.09033 9.06145 6.22378 11.364 6.22378Z" fill="#005A64" fill-opacity="0.35"/>
</g>

<g id="name-login">
  <path fill-rule="evenodd" clip-rule="evenodd" d="M5.10322 5.9114C5.10322 2.79683 7.62808 0.271973 10.7427 0.271973C13.8572 0.271973 16.3821 2.79683 16.3821 5.9114C16.3821 9.02597 13.8572 11.5508 10.7427 11.5508C7.62808 11.5508 5.10322 9.02597 5.10322 5.9114ZM10.7427 2.26236C8.72734 2.26236 7.09361 3.89609 7.09361 5.9114C7.09361 7.92671 8.72734 9.56045 10.7427 9.56045C12.758 9.56045 14.3917 7.92671 14.3917 5.9114C14.3917 3.89609 12.758 2.26236 10.7427 2.26236Z" fill="#C2C3CB"/>
  <path fill-rule="evenodd" clip-rule="evenodd" d="M5.43495 15.5316C3.78606 15.5316 2.44937 16.8683 2.44937 18.5172V20.0939C2.44937 20.118 2.46677 20.1384 2.49047 20.1423C7.95574 21.0346 13.5296 21.0346 18.9948 20.1423C19.0185 20.1384 19.0359 20.118 19.0359 20.094V18.5172C19.0359 16.8683 17.6992 15.5316 16.0504 15.5316H15.598C15.5631 15.5316 15.5283 15.5371 15.4951 15.548L14.3466 15.923C12.0048 16.6877 9.4805 16.6877 7.1387 15.923L5.99023 15.548C5.95699 15.5371 5.92223 15.5316 5.88726 15.5316H5.43495ZM0.458984 18.5172C0.458984 15.769 2.6868 13.5412 5.43495 13.5412H5.88726C6.13207 13.5412 6.37534 13.5799 6.60805 13.6559L7.75652 14.0309C9.69687 14.6645 11.7884 14.6645 13.7288 14.0309L14.8773 13.6559C15.11 13.5799 15.3532 13.5412 15.598 13.5412H16.0504C18.7985 13.5412 21.0263 15.769 21.0263 18.5172V20.094C21.0263 21.0934 20.302 21.9456 19.3156 22.1067C13.6379 23.0336 7.84743 23.0336 2.16975 22.1067C1.18333 21.9456 0.458984 21.0934 0.458984 20.0939V18.5172Z" fill="#C2C3CB"/>
</g>


<path id='arrow-slide' fill-rule="evenodd" clip-rule="evenodd" d="M12.1768 9.26602C11.6965 8.82268 10.9478 8.85262 10.5044 9.3329L6.68085 13.4751C6.26237 13.9284 6.26236 14.6272 6.68084 15.0805L10.5044 19.2228C10.9477 19.7031 11.6965 19.733 12.1768 19.2897C12.6571 18.8463 12.687 18.0976 12.2437 17.6173L10.2535 15.4613L21.7523 15.4613C22.4059 15.4613 22.9358 14.9314 22.9358 14.2778C22.9358 13.6242 22.4059 13.0943 21.7523 13.0943L10.2536 13.0943L12.2437 10.9384C12.687 10.4581 12.6571 9.70936 12.1768 9.26602Z" fill="currentColor"/>

<!--Identity Page-->

<g id='your-photo' >
  <path d="M22.1075 11.8442C19.6676 11.8442 17.6898 13.9316 17.6898 16.5065C17.6898 19.0814 19.6676 21.1687 22.1075 21.1687C24.5473 21.1687 26.5252 19.0814 26.5252 16.5065C26.5252 13.9316 24.5473 11.8442 22.1075 11.8442Z" fill="#323142"/>
  <path d="M17.3952 23.6552C14.9554 23.6552 12.9775 25.7426 12.9775 28.3175V29.7948C12.9775 30.7313 13.6206 31.5297 14.4964 31.6806C19.5371 32.5492 24.6778 32.5492 29.7185 31.6806C30.5943 31.5297 31.2374 30.7313 31.2374 29.7948V28.3175C31.2374 25.7426 29.2595 23.6552 26.8197 23.6552H26.4181C26.2008 23.6552 25.9848 23.6915 25.7782 23.7627L24.7586 24.1141C23.0359 24.7077 21.179 24.7077 19.4563 24.1141L18.4367 23.7627C18.2301 23.6915 18.0141 23.6552 17.7968 23.6552H17.3952Z" fill="#323142"/>
</g>

<g id='residency'>
  <path d="M19.6697 21.9263C19.6697 19.9135 21.3014 18.2818 23.3142 18.2818C25.327 18.2818 26.9587 19.9135 26.9587 21.9263C26.9587 23.9392 25.327 25.5709 23.3142 25.5709C21.3014 25.5709 19.6697 23.9392 19.6697 21.9263Z" fill="#323142"/>
  <path fill-rule="evenodd" clip-rule="evenodd" d="M14.0891 20.6675C14.4745 15.9925 18.3812 12.3945 23.072 12.3945H23.5564C28.2473 12.3945 32.154 15.9925 32.5393 20.6675C32.7468 23.1845 31.9693 25.6839 30.3706 27.6391L24.9957 34.2124C24.1266 35.2752 22.5018 35.2752 21.6328 34.2124L16.2579 27.6391C14.6592 25.6839 13.8816 23.1845 14.0891 20.6675ZM23.3142 16.5997C20.3724 16.5997 17.9876 18.9845 17.9876 21.9263C17.9876 24.8681 20.3724 27.2529 23.3142 27.2529C26.256 27.2529 28.6408 24.8681 28.6408 21.9263C28.6408 18.9845 26.256 16.5997 23.3142 16.5997Z" fill="#323142"/>
</g>

<path id='scan-card' fill-rule="evenodd" clip-rule="evenodd" d="M29.9945 15.7189L22.7533 15.5513L15.5121 15.7189C14.0488 15.7486 12.8083 16.8035 12.5437 18.2429C11.9522 21.4614 11.9522 24.7607 12.5437 27.9792C12.8083 29.4187 14.0488 30.4735 15.5121 30.5032L22.7533 30.6709L29.9945 30.5032C31.4578 30.4735 32.6983 29.4187 32.9629 27.9792C33.5544 24.7607 33.5544 21.4614 32.9629 18.2429C32.6983 16.8035 31.4578 15.7486 29.9945 15.7189ZM31.8248 22.1031C31.8248 22.6598 31.3735 23.111 30.8169 23.111H14.6897C14.1331 23.111 13.6818 22.6598 13.6818 22.1031C13.6818 21.5464 14.1331 21.0952 14.6897 21.0952H30.8169C31.3735 21.0952 31.8248 21.5464 31.8248 22.1031Z" fill="#323142"/>

</svg>
